<svg id="visual" viewBox="0 0 900 600" width="900" height="600" xmlns="http://www.w3.org/2000/svg" xmlns:xlink="http://www.w3.org/1999/xlink" version="1.1"><path d="M0 109L13.7 110C27.3 111 54.7 113 82 123C109.3 133 136.7 151 163.8 163C191 175 218 181 245.2 195C272.3 209 299.7 231 327 219C354.3 207 381.7 161 409 144C436.3 127 463.7 139 491 146C518.3 153 545.7 155 573 172C600.3 189 627.7 221 654.8 220C682 219 709 185 736.2 171C763.3 157 790.7 163 818 174C845.3 185 872.7 201 886.3 209L900 217L900 0L886.3 0C872.7 0 845.3 0 818 0C790.7 0 763.3 0 736.2 0C709 0 682 0 654.8 0C627.7 0 600.3 0 573 0C545.7 0 518.3 0 491 0C463.7 0 436.3 0 409 0C381.7 0 354.3 0 327 0C299.7 0 272.3 0 245.2 0C218 0 191 0 163.8 0C136.7 0 109.3 0 82 0C54.7 0 27.3 0 13.7 0L0 0Z" fill="#ffe800"></path><path d="M0 235L13.7 232C27.3 229 54.7 223 82 235C109.3 247 136.7 277 163.8 285C191 293 218 279 245.2 281C272.3 283 299.7 301 327 296C354.3 291 381.7 263 409 252C436.3 241 463.7 247 491 259C518.3 271 545.7 289 573 299C600.3 309 627.7 311 654.8 307C682 303 709 293 736.2 277C763.3 261 790.7 239 818 242C845.3 245 872.7 273 886.3 287L900 301L900 215L886.3 207C872.7 199 845.3 183 818 172C790.7 161 763.3 155 736.2 169C709 183 682 217 654.8 218C627.7 219 600.3 187 573 170C545.7 153 518.3 151 491 144C463.7 137 436.3 125 409 142C381.7 159 354.3 205 327 217C299.7 229 272.3 207 245.2 193C218 179 191 173 163.8 161C136.7 149 109.3 131 82 121C54.7 111 27.3 109 13.7 108L0 107Z" fill="#ffcb00"></path><path d="M0 277L13.7 274C27.3 271 54.7 265 82 283C109.3 301 136.7 343 163.8 351C191 359 218 333 245.2 331C272.3 329 299.7 351 327 354C354.3 357 381.7 341 409 329C436.3 317 463.7 309 491 313C518.3 317 545.7 333 573 349C600.3 365 627.7 381 654.8 381C682 381 709 365 736.2 347C763.3 329 790.7 309 818 309C845.3 309 872.7 329 886.3 339L900 349L900 299L886.3 285C872.7 271 845.3 243 818 240C790.7 237 763.3 259 736.2 275C709 291 682 301 654.8 305C627.7 309 600.3 307 573 297C545.7 287 518.3 269 491 257C463.7 245 436.3 239 409 250C381.7 261 354.3 289 327 294C299.7 299 272.3 281 245.2 279C218 277 191 291 163.8 283C136.7 275 109.3 245 82 233C54.7 221 27.3 227 13.7 230L0 233Z" fill="#ffbb00"></path><path d="M0 523L13.7 515C27.3 507 54.7 491 82 492C109.3 493 136.7 511 163.8 514C191 517 218 505 245.2 510C272.3 515 299.7 537 327 548C354.3 559 381.7 559 409 544C436.3 529 463.7 499 491 484C518.3 469 545.7 469 573 479C600.3 489 627.7 509 654.8 515C682 521 709 513 736.2 508C763.3 503 790.7 501 818 498C845.3 495 872.7 491 886.3 489L900 487L900 347L886.3 337C872.7 327 845.3 307 818 307C790.7 307 763.3 327 736.2 345C709 363 682 379 654.8 379C627.7 379 600.3 363 573 347C545.7 331 518.3 315 491 311C463.7 307 436.3 315 409 327C381.7 339 354.3 355 327 352C299.7 349 272.3 327 245.2 329C218 331 191 357 163.8 349C136.7 341 109.3 299 82 281C54.7 263 27.3 269 13.7 272L0 275Z" fill="#ffcb00"></path><path d="M0 601L13.7 601C27.3 601 54.7 601 82 601C109.3 601 136.7 601 163.8 601C191 601 218 601 245.2 601C272.3 601 299.7 601 327 601C354.3 601 381.7 601 409 601C436.3 601 463.7 601 491 601C518.3 601 545.7 601 573 601C600.3 601 627.7 601 654.8 601C682 601 709 601 736.2 601C763.3 601 790.7 601 818 601C845.3 601 872.7 601 886.3 601L900 601L900 485L886.3 487C872.7 489 845.3 493 818 496C790.7 499 763.3 501 736.2 506C709 511 682 519 654.8 513C627.7 507 600.3 487 573 477C545.7 467 518.3 467 491 482C463.7 497 436.3 527 409 542C381.7 557 354.3 557 327 546C299.7 535 272.3 513 245.2 508C218 503 191 515 163.8 512C136.7 509 109.3 491 82 490C54.7 489 27.3 505 13.7 513L0 521Z" fill="#ffe800"></path></svg>